<svg width="161" height="45" viewBox="0 0 161 45" fill="none" xmlns="http://www.w3.org/2000/svg">
<path d="M75.864 29.16C75.288 29.16 74.7387 29.0907 74.216 28.952C73.704 28.8027 73.2453 28.5787 72.84 28.28C72.4347 27.9813 72.1093 27.6133 71.864 27.176C71.6293 26.7387 71.5067 26.2213 71.496 25.624C71.496 25.528 71.528 25.448 71.592 25.384C71.656 25.3093 71.736 25.272 71.832 25.272H73.352C73.4907 25.272 73.592 25.3093 73.656 25.384C73.7307 25.4587 73.7893 25.56 73.832 25.688C73.8853 26.072 74.008 26.3867 74.2 26.632C74.392 26.8667 74.632 27.0427 74.92 27.16C75.2187 27.2667 75.5493 27.32 75.912 27.32C76.584 27.32 77.096 27.1013 77.448 26.664C77.8107 26.2267 77.992 25.6187 77.992 24.84V19.688H72.568C72.4507 19.688 72.3547 19.6507 72.28 19.576C72.216 19.5013 72.184 19.4107 72.184 19.304V18.184C72.184 18.0773 72.216 17.9867 72.28 17.912C72.3547 17.8373 72.4507 17.8 72.568 17.8H79.88C79.9973 17.8 80.0933 17.8373 80.168 17.912C80.2427 17.9867 80.28 18.0827 80.28 18.2V24.904C80.28 25.7893 80.0933 26.552 79.72 27.192C79.3573 27.832 78.8453 28.3227 78.184 28.664C77.5333 28.9947 76.76 29.16 75.864 29.16ZM85.6295 29C85.5228 29 85.4322 28.9627 85.3575 28.888C85.2828 28.8133 85.2455 28.7227 85.2455 28.616V18.2C85.2455 18.0827 85.2828 17.9867 85.3575 17.912C85.4322 17.8373 85.5228 17.8 85.6295 17.8H92.6695C92.7868 17.8 92.8828 17.8373 92.9575 17.912C93.0322 17.9867 93.0695 18.0827 93.0695 18.2V19.256C93.0695 19.3627 93.0322 19.4533 92.9575 19.528C92.8828 19.6027 92.7868 19.64 92.6695 19.64H87.4055V22.472H92.3175C92.4348 22.472 92.5308 22.5093 92.6055 22.584C92.6802 22.648 92.7175 22.7387 92.7175 22.856V23.848C92.7175 23.9653 92.6802 24.0613 92.6055 24.136C92.5308 24.2 92.4348 24.232 92.3175 24.232H87.4055V27.16H92.7975C92.9148 27.16 93.0108 27.1973 93.0855 27.272C93.1602 27.3467 93.1975 27.4427 93.1975 27.56V28.616C93.1975 28.7227 93.1602 28.8133 93.0855 28.888C93.0108 28.9627 92.9148 29 92.7975 29H85.6295ZM99.5986 29C99.4386 29 99.3106 28.9573 99.2146 28.872C99.1293 28.776 99.0706 28.6587 99.0386 28.52L97.1346 18.264C97.1346 18.232 97.1293 18.2053 97.1186 18.184C97.1186 18.1627 97.1186 18.1467 97.1186 18.136C97.1186 18.04 97.1506 17.96 97.2146 17.896C97.2893 17.832 97.3693 17.8 97.4546 17.8H98.8626C99.1293 17.8 99.2786 17.9067 99.3106 18.12L100.639 25.368L102.079 20.68C102.111 20.5947 102.164 20.5093 102.239 20.424C102.324 20.328 102.447 20.28 102.607 20.28H103.471C103.641 20.28 103.764 20.328 103.839 20.424C103.913 20.5093 103.961 20.5947 103.983 20.68L105.439 25.352L106.767 18.12C106.799 17.9067 106.948 17.8 107.215 17.8H108.623C108.708 17.8 108.783 17.832 108.847 17.896C108.911 17.96 108.943 18.04 108.943 18.136C108.943 18.1467 108.943 18.1627 108.943 18.184C108.943 18.2053 108.937 18.232 108.927 18.264L107.023 28.52C107.001 28.6587 106.943 28.776 106.847 28.872C106.751 28.9573 106.623 29 106.463 29H105.391C105.231 29 105.103 28.9573 105.007 28.872C104.921 28.7867 104.863 28.696 104.831 28.6L103.039 23.256L101.247 28.6C101.204 28.696 101.14 28.7867 101.055 28.872C100.969 28.9573 100.841 29 100.671 29H99.5986ZM113.765 29C113.658 29 113.568 28.9627 113.493 28.888C113.418 28.8133 113.381 28.7227 113.381 28.616V18.2C113.381 18.0827 113.418 17.9867 113.493 17.912C113.568 17.8373 113.658 17.8 113.765 17.8H120.805C120.922 17.8 121.018 17.8373 121.093 17.912C121.168 17.9867 121.205 18.0827 121.205 18.2V19.256C121.205 19.3627 121.168 19.4533 121.093 19.528C121.018 19.6027 120.922 19.64 120.805 19.64H115.541V22.472H120.453C120.57 22.472 120.666 22.5093 120.741 22.584C120.816 22.648 120.853 22.7387 120.853 22.856V23.848C120.853 23.9653 120.816 24.0613 120.741 24.136C120.666 24.2 120.57 24.232 120.453 24.232H115.541V27.16H120.933C121.05 27.16 121.146 27.1973 121.221 27.272C121.296 27.3467 121.333 27.4427 121.333 27.56V28.616C121.333 28.7227 121.296 28.8133 121.221 28.888C121.146 28.9627 121.05 29 120.933 29H113.765ZM126.278 29C126.172 29 126.081 28.9627 126.006 28.888C125.932 28.8133 125.894 28.7227 125.894 28.616V18.184C125.894 18.0773 125.932 17.9867 126.006 17.912C126.081 17.8373 126.172 17.8 126.278 17.8H127.766C127.873 17.8 127.964 17.8373 128.038 17.912C128.113 17.9867 128.15 18.0773 128.15 18.184V27.096H133.222C133.34 27.096 133.436 27.1333 133.51 27.208C133.585 27.2827 133.622 27.3787 133.622 27.496V28.616C133.622 28.7227 133.585 28.8133 133.51 28.888C133.436 28.9627 133.34 29 133.222 29H126.278ZM138.12 29C138.013 29 137.922 28.9627 137.848 28.888C137.773 28.8133 137.736 28.7227 137.736 28.616V18.2C137.736 18.0827 137.773 17.9867 137.848 17.912C137.922 17.8373 138.013 17.8 138.12 17.8H142.264C143.554 17.8 144.573 18.0987 145.32 18.696C146.066 19.2933 146.44 20.1627 146.44 21.304C146.44 22.0933 146.242 22.7493 145.848 23.272C145.464 23.7947 144.946 24.1733 144.296 24.408L146.632 28.488C146.664 28.552 146.68 28.6107 146.68 28.664C146.68 28.76 146.642 28.84 146.568 28.904C146.504 28.968 146.429 29 146.344 29H144.888C144.706 29 144.568 28.952 144.472 28.856C144.376 28.76 144.301 28.664 144.248 28.568L142.184 24.776H139.96V28.616C139.96 28.7227 139.922 28.8133 139.848 28.888C139.784 28.9627 139.693 29 139.576 29H138.12ZM139.96 22.968H142.216C142.866 22.968 143.352 22.824 143.672 22.536C143.992 22.2373 144.152 21.8213 144.152 21.288C144.152 20.7547 143.992 20.3387 143.672 20.04C143.362 19.7307 142.877 19.576 142.216 19.576H139.96V22.968ZM153.967 29C153.861 29 153.77 28.9627 153.695 28.888C153.621 28.8133 153.583 28.7227 153.583 28.616V25L149.807 18.312C149.797 18.2907 149.786 18.264 149.775 18.232C149.765 18.2 149.759 18.168 149.759 18.136C149.759 18.04 149.791 17.96 149.855 17.896C149.919 17.832 149.994 17.8 150.079 17.8H151.503C151.631 17.8 151.733 17.832 151.807 17.896C151.893 17.96 151.951 18.0293 151.983 18.104L154.703 22.76L157.407 18.104C157.45 18.0293 157.509 17.96 157.583 17.896C157.669 17.832 157.775 17.8 157.903 17.8H159.311C159.407 17.8 159.487 17.832 159.551 17.896C159.615 17.96 159.647 18.04 159.647 18.136C159.647 18.168 159.642 18.2 159.631 18.232C159.631 18.264 159.621 18.2907 159.599 18.312L155.823 25V28.616C155.823 28.7227 155.786 28.8133 155.711 28.888C155.637 28.9627 155.541 29 155.423 29H153.967Z" fill="#CBA15E"/>
<g clip-path="url(#clip0_13_8)">
<path d="M60.991 44.4393C60.9639 34.5922 56.563 25.698 48.8929 19.9402L55.8596 12.5094C55.8641 12.5048 55.8641 12.5003 55.8686 12.4957C55.8776 12.4866 55.8821 12.4729 55.8911 12.4638C55.9137 12.4319 55.9362 12.4045 55.9497 12.368C55.9542 12.3544 55.9588 12.3361 55.9633 12.3225C55.9678 12.3133 55.9723 12.3088 55.9768 12.2951C55.9813 12.2769 55.9813 12.2586 55.9858 12.2404C55.9858 12.2313 55.9903 12.2222 55.9903 12.2085C55.9903 12.2039 55.9903 12.1994 55.9903 12.1948C55.9903 12.1538 55.9858 12.1082 55.9768 12.0672C55.9768 12.0626 55.9723 12.0535 55.9723 12.0489C55.9678 12.0398 55.9678 12.0307 55.9633 12.017C55.9542 11.9851 55.9362 11.9578 55.9227 11.9304C55.9182 11.9258 55.9182 11.9167 55.9137 11.9122C55.9092 11.9076 55.9092 11.9076 55.9046 11.9031C55.9001 11.8939 55.8956 11.8894 55.8911 11.8803L48.5998 2.93131C48.5998 2.93131 48.5953 2.93131 48.5953 2.92676C48.5908 2.9222 48.5863 2.91764 48.5818 2.91308C48.5772 2.90852 48.5772 2.90396 48.5727 2.90396C48.5682 2.8994 48.5592 2.89484 48.5547 2.89028C48.5412 2.87661 48.5276 2.86293 48.5141 2.85381C48.5141 2.85381 48.5096 2.85381 48.5096 2.84926C48.5096 2.84926 48.5051 2.8447 48.5006 2.8447C48.4961 2.84014 48.4961 2.84014 48.4916 2.83558C48.4871 2.83102 48.478 2.83102 48.4735 2.82646C48.4645 2.8219 48.4555 2.81278 48.442 2.80823C48.4239 2.79911 48.4059 2.79455 48.3879 2.78543C48.3788 2.78543 48.3743 2.77631 48.3698 2.77631L38.4677 0.0182352C38.4271 0.00455881 38.3865 0 38.346 0H22.645C22.6045 0 22.5639 0.00455881 22.5233 0.0182352L12.6257 2.77631C12.6166 2.78087 12.6076 2.78543 12.5986 2.78999C12.5851 2.79455 12.567 2.79911 12.5535 2.80823C12.54 2.81278 12.531 2.8219 12.5174 2.82646C12.5129 2.83102 12.5039 2.83102 12.4949 2.83558C12.4904 2.84014 12.4859 2.8447 12.4814 2.8447C12.4769 2.84926 12.4724 2.84926 12.4678 2.85381C12.4543 2.86293 12.4408 2.87661 12.4318 2.89028C12.4273 2.89484 12.4182 2.8994 12.4092 2.90852C12.4047 2.91308 12.4047 2.91764 12.4002 2.91764C12.3957 2.9222 12.3912 2.92676 12.3867 2.93131C12.3867 2.93131 12.3822 2.93131 12.3822 2.93587L5.10889 11.8894C5.10438 11.8939 5.09987 11.903 5.09536 11.9122C5.09085 11.9167 5.09085 11.9167 5.08634 11.9213C5.08183 11.9258 5.08183 11.935 5.07732 11.9395C5.05928 11.9669 5.04576 11.9942 5.03674 12.0261C5.03223 12.0353 5.02772 12.0444 5.02772 12.058C5.02772 12.0626 5.02321 12.0717 5.02321 12.0763C5.01419 12.1173 5.00968 12.1583 5.00968 12.2039C5.00968 12.2085 5.00968 12.213 5.00968 12.2176C5.00968 12.2267 5.01419 12.2358 5.01419 12.2495C5.01419 12.2678 5.0187 12.286 5.02321 12.3042C5.02321 12.3133 5.03223 12.3225 5.03674 12.3316C5.04125 12.3453 5.04125 12.3635 5.05027 12.3772C5.06379 12.4091 5.08634 12.441 5.10889 12.4683C5.1179 12.4775 5.12241 12.4911 5.13143 12.5048C5.13594 12.5094 5.13594 12.5139 5.14045 12.5185L12.1071 19.9493C4.40546 25.7162 0 34.6469 0 44.5304C0 44.7903 0.207422 44.9954 0.459935 44.9954H4.55426C4.81128 44.9954 5.01419 44.7857 5.01419 44.5304C5.01419 36.5252 9.06793 28.5792 15.6062 23.683L30.1573 39.2012C30.1618 39.2058 30.1708 39.2103 30.1798 39.2149C30.1979 39.2331 30.2159 39.2513 30.234 39.265L30.2385 39.2696C30.2475 39.2787 30.261 39.2787 30.27 39.2833C30.2745 39.2878 30.2791 39.2878 30.2881 39.2924C30.2971 39.2969 30.3016 39.306 30.3106 39.306C30.3151 39.3106 30.3241 39.306 30.3287 39.3106C30.3377 39.3152 30.3467 39.3197 30.3557 39.3243C30.4008 39.338 30.4459 39.3425 30.4865 39.3425C30.491 39.3425 30.491 39.3425 30.4955 39.3425C30.5045 39.3425 30.5135 39.338 30.518 39.338C30.5586 39.3334 30.5992 39.3288 30.6398 39.3152C30.6668 39.306 30.6939 39.2924 30.7209 39.2787C30.7345 39.2696 30.748 39.2605 30.7615 39.2513C30.7931 39.2285 30.8202 39.2058 30.8427 39.1784L45.4253 23.6237C51.9321 28.4971 55.9633 36.4659 55.9633 44.5304C55.9633 44.7903 56.1707 44.9954 56.4232 44.9954H60.5175C60.522 44.9954 60.522 44.9954 60.5265 44.9954C60.7836 44.9954 60.9865 44.7857 60.9865 44.5304C61 44.4985 60.9955 44.4666 60.991 44.4393ZM4.09883 44.0654H0.924379C1.05965 34.6287 5.34336 26.1265 12.7384 20.6195L14.9659 22.9946C8.37352 27.9729 4.25214 35.9644 4.09883 44.0654ZM54.7728 11.9988L45.3487 16.0242L39.9287 18.3401L46.3632 7.3488L48.3022 4.0391L48.3518 4.10293L54.7728 11.9988ZM7.31838 13.485L21.8153 19.6758L29.0435 36.6528L7.31838 13.485ZM6.21814 11.9988L12.6843 4.0391L14.2219 6.66498L21.0578 18.3401L16.3502 16.3297L6.21814 11.9988ZM30.4955 3.79749L37.2051 8.31527L30.4955 9.93365L23.7813 8.31527L30.4955 3.79749ZM23.0824 9.10394L29.6117 10.6813L22.6856 18.0939L23.0824 9.10394ZM30.4955 21.6589L23.0058 19.1105L30.4955 11.0916L37.9852 19.1105L30.4955 21.6589ZM31.3793 10.6813L37.9086 9.10394L38.3054 18.0939L31.3793 10.6813ZM21.7793 17.7338L13.9784 4.41293L22.1716 8.79394L21.7793 17.7338ZM30.3467 22.5935C30.4414 22.6254 30.5451 22.6254 30.6398 22.5935L37.9807 20.0998L30.491 37.6968L23.0058 20.1043L30.3467 22.5935ZM39.2117 17.7338L38.8194 8.79394L47.0126 4.41293L43.4548 10.4898L39.2117 17.7338ZM44.8391 2.76264L33.2235 2.7672L38.364 0.952791L44.8391 2.76264ZM46.3813 3.69264L41.7684 6.15895L38.373 7.97792L32.0962 3.70175L46.3813 3.69264ZM22.618 7.97792L19.2226 6.16351L14.6097 3.69264L28.8947 3.70175L22.618 7.97792ZM16.1518 2.76264L22.627 0.95735L27.7674 2.77176L16.1518 2.76264ZM30.5631 2.71705C30.518 2.70793 30.4729 2.70793 30.4279 2.71705L25.3686 0.934556H35.6224L30.5631 2.71705ZM35.5503 28.1826L39.1711 19.6758L42.553 18.2307L53.6726 13.4804L31.9429 36.6574L35.5503 28.1826ZM56.8921 44.0654C56.7433 35.9052 52.64 27.8954 46.0837 22.9354L48.2571 20.6195C55.6476 26.1265 59.9313 34.6287 60.0666 44.0654H56.8921Z" fill="url(#paint0_linear_13_8)"/>
</g>
<defs>
<linearGradient id="paint0_linear_13_8" x1="0" y1="22.499" x2="60.9992" y2="22.499" gradientUnits="userSpaceOnUse">
<stop stop-color="#6C2E39"/>
<stop offset="0.2609" stop-color="#A08050"/>
<stop offset="0.4633" stop-color="#C79955"/>
<stop offset="0.7234" stop-color="#E8DA9D"/>
<stop offset="1" stop-color="#C79955"/>
</linearGradient>
<clipPath id="clip0_13_8">
<rect width="61" height="45" fill="white"/>
</clipPath>
</defs>
</svg>
